<svg enable-background="new 0 0 368.1 472.6" viewBox="0 0 368.1 472.6" xmlns="http://www.w3.org/2000/svg"><g transform="translate(-.056)"><g fill="#fff"><path d="m188.9 70c90.4 0 163.6 73.3 163.6 163.6v21.1c0 90.4-73.3 163.6-163.6 163.6-90.4 0-163.6-73.3-163.6-163.6v-21.1c0-90.4 73.3-163.6 163.6-163.6z"/><path d="m120.2 36.8h205.9v208.4h-205.9z" transform="matrix(.4691 -.8832 .8832 .4691 -6.1296 271.9291)"/><path d="m38.3 36.7h205.9v211h-205.9z" transform="matrix(.8746 -.4848 .4848 .8746 -51.2227 86.3109)"/><path d="m141.3 109.5h211v205.9h-211z"/></g><path d="m156.4 290.7c-2.6 0-5-1.1-6.7-3.1l-46.7-54.7c-3.2-3.7-2.8-9.3.9-12.5s9.3-2.8 12.5.9c0 0 .1.1.1.1l41.1 48.1 102.1-83.1c3.8-3.1 9.4-2.4 12.4 1.4s2.5 9.3-1.3 12.4l-108.8 88.5c-1.6 1.3-3.5 2-5.6 2z" fill="#6fc99a"/><path d="m153.5 461.5 24 10.4c2.2 1 4.8 1 7 0l27-11.7c94.9-39.8 156.6-132.7 156.6-235.6v-121.1c0-3.3-1.8-6.3-4.7-7.8l-177.6-94.7c-2.6-1.4-5.8-1.4-8.4 0l-172.8 94.7c-2.8 1.6-4.6 4.5-4.6 7.8v123.6c.2 101.7 60.4 193.6 153.5 234.4zm-135.8-352.8 163.9-89.8 168.7 89.9v115.9c0 95.8-57.5 182.2-145.8 219.3h-.1l-23.4 10.2-20.4-8.9c-86.7-37.9-142.8-123.5-142.9-218.1z" fill="#94abd4"/><path d="m242.5 393.4-23.6 10.2-20.4-8.9c-86.7-37.9-142.8-123.5-142.9-218.1v-88.6l-37.9 20.8v118.4c.1 94.6 56.2 180.2 142.9 218.1l20.4 8.9 23.5-10.2h.1c49-20.6 89.6-57 115.6-103.3-22.2 22.5-48.6 40.5-77.7 52.7z" fill="#d4e1f4"/></g></svg>